<svg width="4" height="20" viewBox="0 0 4 20" fill="none" xmlns="http://www.w3.org/2000/svg">
<path d="M2 4.16662C0.89543 4.16662 0 3.23389 0 2.08331C0 0.93273 0.89543 0 2 0C3.10457 0 4 0.93273 4 2.08331C4 3.23389 3.10457 4.16662 2 4.16662Z" fill="black"/>
<path d="M2 12.0832C0.89543 12.0832 0 11.1505 0 9.99991C0 8.84933 0.89543 7.9166 2 7.9166C3.10457 7.9166 4 8.84933 4 9.99991C4 11.1505 3.10457 12.0832 2 12.0832Z" fill="black"/>
<path d="M2 19.9998C0.89543 19.9998 0 19.0671 0 17.9165C0 16.7659 0.89543 15.8332 2 15.8332C3.10457 15.8332 4 16.7659 4 17.9165C4 19.0671 3.10457 19.9998 2 19.9998Z" fill="black"/>
</svg>
